<svg xmlns="http://www.w3.org/2000/svg" xmlns:xlink="http://www.w3.org/1999/xlink" width="80" height="110" viewBox="0 0 80 110"><defs><clipPath id="a"><rect width="80" height="110" transform="translate(719 230)" fill="none" stroke="#707070" stroke-width="1"/></clipPath><clipPath id="b"><rect width="92" height="92" transform="translate(-0.323 -0.323)" fill="none"/></clipPath></defs><g transform="translate(-719 -230)" clip-path="url(#a)"><g transform="translate(713.323 239.323)"><g clip-path="url(#b)"><path d="M303.272,801.862a22.469,22.469,0,0,1-3.474,8.022,26.935,26.935,0,0,1-17.707,10.96,33.992,33.992,0,0,1-4.354.548c-1.923,1.352-3.653,3.1-5.51,4.581-7.378-6.722-5.094-3.551-13.688-6.033-6.1-1.718-11.879-5.53-14.973-11.383-.248-.454-.475-.918-.691-1.387l-.006-.014q-.424-.919-.771-1.872c-.091-.248-.18-.5-.264-.747q-.1-.3-.2-.609c-.043-.135-.082-.271-.12-.406s-.072-.248-.106-.376-.07-.25-.1-.376c-.029-.11-.055-.218-.084-.328-.01-.035-.019-.07-.026-.105-.027-.108-.051-.218-.077-.326-.046-.2-.092-.4-.132-.594s-.084-.406-.123-.611c0-.02-.007-.04-.012-.06-.263-1.37-.071-4.141-.17-5.528a6.923,6.923,0,0,0-3.924-6.444,11.545,11.545,0,0,0,3.924-11.921c7.521,1.88,11.446,13.346,18.357,16.9a13.244,13.244,0,0,0,10.5.726c-2.319-.143-7.635.145-11.073-5.7,7.005,3.562,10.962,1.616,15.918.378,18.233-4.556,28.853,10.983,28.853,10.983a1.222,1.222,0,0,1,.223.5,7.562,7.562,0,0,1-.191,1.224" transform="translate(-226.477 -743.112)" fill="#064290"/><path d="M392.591,1321.254a7.515,7.515,0,0,1-.191,1.224,22.472,22.472,0,0,1-3.475,8.022c-.1.145-.2.287-.3.429H333.741a19.279,19.279,0,0,1-1.049-1.756c-.247-.453-.474-.918-.691-1.387a.136.136,0,0,0-.007-.014q-.422-.918-.77-1.872c-.091-.247-.18-.5-.264-.747-.068-.2-.132-.406-.2-.608-.044-.135-.082-.27-.121-.406s-.072-.249-.105-.377-.07-.25-.1-.375c-.03-.109-.056-.217-.085-.328-.01-.036-.019-.07-.027-.105-.026-.108-.051-.219-.076-.326-.046-.2-.091-.395-.132-.593s-.085-.406-.123-.612c-.005-.019-.007-.04-.012-.06-.016-.085-.031-.168-.046-.253h62.627a.484.484,0,0,1,.029.143" transform="translate(-315.604 -1263.728)" fill="#ffc000"/><path d="M350.574,225.026c-3.876,2.231-8.242.56-9.5.515-2.789-.1-5.081.862-7.156.734-3.139-.194-7.887-2.916-8.815-7.237-1.048-4.877.961-9.248,4.427-11.036a4.351,4.351,0,0,0,3.626,7.847c3.929-1.4,3.308-5.666,1.7-7.18-3.646-3.437-2.786-6.449-1.53-8.916-.453-.14-.9-.3-1.349-.47a22.6,22.6,0,0,1-3.705-1.852.371.371,0,0,0-.415-.01c-.866.424-1.727.87-2.616,1.237a17.147,17.147,0,0,1-4.137,1.136c-.917.129-1.845.215-2.769.275a19.018,19.018,0,0,1-1.972,0c-.677-.027-1.357-.086-2.034-.148-.53-.047-1.059-.119-1.587-.187-.26-.029-.518-.07-.814-.109.045.094.071.158.1.215.15.275.309.546.453.824a23.977,23.977,0,0,1,1.948,4.935,22.384,22.384,0,0,1,.767,4.9,21.019,21.019,0,0,1-.137,3.926c-.118.831-.219,1.665-.382,2.486s-.433,1.994-.671,2.794a13.28,13.28,0,0,0-3.346-2.476c.1-.392.252-1.043.333-1.443a18.784,18.784,0,0,0,.313-5.407,20.973,20.973,0,0,0-2.3-7.747,31.306,31.306,0,0,0-2.345-3.583l2.6-4.811a19.623,19.623,0,0,0,10.2,1.891,18.006,18.006,0,0,0,8.689-3.825c.7.47,1.37.948,2.066,1.387a17.585,17.585,0,0,0,5.456,2.312c.926-1.229,1.983-2.459,3.108-3.7-.339,3.1,1.131,6.855,2.021,8.442a14.512,14.512,0,0,0,2.21,3.082c3.027,3.288,5.907,5.087,6.036,10.734a6,6,0,0,0-.859-8.505,10.251,10.251,0,0,1,7.193,6.535,10.376,10.376,0,0,1-4.816,12.43" transform="translate(-293.349 -183.955)" fill="#d00024"/><path d="M1130.923,230.29c-1.574.548-4.485,2.84-3.94,7.524-2.521-2.532-7.169-7.6-15.7-9.507,5.026-1.644,6.458-4.778,7.085-6.178,1.1-2.457.865-5.07.763-7.367a26.505,26.505,0,0,1,3.3-14.282,7.413,7.413,0,0,1-1.214.014c-.339.045-.677.086-1.016.115-.677.062-1.357.121-2.034.148a19.011,19.011,0,0,1-1.972,0c-.924-.061-1.853-.146-2.769-.275a17.147,17.147,0,0,1-4.137-1.136c-.889-.367-1.75-.814-2.616-1.237a.576.576,0,0,0-.146-.053c-.273.148-.623.318-1.018.507,0,0,0,0-.006,0a22.5,22.5,0,0,1-2.951,1.405c-.447.172-2.6,1.176-3.051,1.314a13.316,13.316,0,0,1-1.829-4.37,25.174,25.174,0,0,0,6.635-2.531c.23-.146.457-.295.681-.447.511-.3.988-.6,1.426-.909a17.013,17.013,0,0,0,11.9,3.871,19.721,19.721,0,0,0,7.013-1.968c0,.028,2.611,4.8,2.606,4.81a22.652,22.652,0,0,0-4.059,7.763.123.123,0,0,0-.007.027,23.81,23.81,0,0,0,7.062,22.761" transform="translate(-1049.992 -184.642)" fill="#ffc000"/><path d="M601.256,1593.818v-.22h.13a.26.26,0,0,0,.16-.031.229.229,0,0,0,.031-.149v-1.255l-.626,1.655h-.191l-.589-1.687v1.287a.229.229,0,0,0,.031.149.26.26,0,0,0,.16.031h.116v.22h-.906v-.22h.1a.26.26,0,0,0,.16-.031.228.228,0,0,0,.031-.149v-1.143a.23.23,0,0,0-.031-.149.261.261,0,0,0-.16-.03h-.1v-.219h.9l.432,1.259.482-1.259h.866v.219h-.11a.263.263,0,0,0-.162.031.226.226,0,0,0-.032.148v1.143a.226.226,0,0,0,.032.148.263.263,0,0,0,.162.031h.11v.22Z" transform="translate(-573.529 -1522.733)" fill="#fff"/><path d="M671.676,1591.632a.98.98,0,0,1,.295-.743,1.206,1.206,0,0,1,1.55,0,1.089,1.089,0,0,1,0,1.487,1.2,1.2,0,0,1-1.549,0,.985.985,0,0,1-.295-.744m.456,0a.936.936,0,0,0,.163.586.589.589,0,0,0,.9,0,1.142,1.142,0,0,0,0-1.171.591.591,0,0,0-.9,0,.93.93,0,0,0-.163.584" transform="translate(-642.501 -1521.519)" fill="#fff"/><path d="M731.87,1593.418a.226.226,0,0,0,.032.148.263.263,0,0,0,.162.031h.136v.22h-1.041v-.22h.113a.26.26,0,0,0,.16-.031.229.229,0,0,0,.031-.149v-1.143a.23.23,0,0,0-.031-.149.261.261,0,0,0-.16-.03h-.113v-.219h1.16a1.011,1.011,0,0,1,.541.115.39.39,0,0,1,.177.352.425.425,0,0,1-.141.334.743.743,0,0,1-.415.158.5.5,0,0,1,.29.118.482.482,0,0,1,.1.3l.013.174a.358.358,0,0,0,.025.133.065.065,0,0,0,.061.031q.085,0,.09-.318v-.009h.184a.331.331,0,0,1,0,.039c0,.014,0,.033,0,.059a.632.632,0,0,1-.1.39.366.366,0,0,1-.306.123.341.341,0,0,1-.373-.357l-.008-.228a.425.425,0,0,0-.1-.309.552.552,0,0,0-.351-.081h-.138Zm0-.738h.342a.521.521,0,0,0,.3-.07.257.257,0,0,0,.1-.223.261.261,0,0,0-.092-.225.551.551,0,0,0-.316-.068h-.332Z" transform="translate(-699.4 -1522.733)" fill="#fff"/><path d="M788.981,1593.818v-.22h.113a.26.26,0,0,0,.16-.031.228.228,0,0,0,.031-.149v-1.143a.23.23,0,0,0-.031-.149.261.261,0,0,0-.16-.03h-.113v-.219h1.91v.773h-.22a.724.724,0,0,0-.108-.443.543.543,0,0,0-.4-.111h-.466v.6h.11a.326.326,0,0,0,.239-.063.53.53,0,0,0,.071-.289h.22v.974h-.22a.65.65,0,0,0-.069-.323.294.294,0,0,0-.237-.073h-.113v.682h.509a.428.428,0,0,0,.349-.118.948.948,0,0,0,.12-.484h.22v.823Z" transform="translate(-754.711 -1522.733)" fill="#fff"/><path d="M873.425,1592.09h-.038a.4.4,0,0,0-.339.139.772.772,0,0,0-.11.451h-.222v-.8h1.828v.8h-.222a.768.768,0,0,0-.109-.449.4.4,0,0,0-.338-.141h-.042v1.328a.226.226,0,0,0,.032.148.263.263,0,0,0,.162.031h.165v.22h-1.126v-.22h.168a.26.26,0,0,0,.16-.031.229.229,0,0,0,.031-.149Z" transform="translate(-834.809 -1522.733)" fill="#fff"/><path d="M924.229,1593.818v-.22h.113a.26.26,0,0,0,.16-.031.229.229,0,0,0,.031-.149v-1.143a.23.23,0,0,0-.031-.149.261.261,0,0,0-.16-.03h-.113v-.219h1.041v.219h-.136a.263.263,0,0,0-.162.031.225.225,0,0,0-.032.148v.429h.839v-.429a.23.23,0,0,0-.031-.149.261.261,0,0,0-.16-.03h-.137v-.219H926.5v.219h-.113a.263.263,0,0,0-.162.031.226.226,0,0,0-.032.148v1.143a.226.226,0,0,0,.032.148.263.263,0,0,0,.162.031h.113v.22h-1.043v-.22h.137a.26.26,0,0,0,.16-.031.229.229,0,0,0,.031-.149v-.48h-.839v.48a.226.226,0,0,0,.032.148.263.263,0,0,0,.162.031h.136v.22Z" transform="translate(-884.085 -1522.733)" fill="#fff"/><path d="M983.321,1593.818v-.22h.061a.284.284,0,0,0,.165-.039.307.307,0,0,0,.094-.149l.541-1.533h.407l.579,1.533a.352.352,0,0,0,.091.161.281.281,0,0,0,.143.027h.058v.22h-1v-.22h.157a.336.336,0,0,0,.128-.016.06.06,0,0,0,.033-.059.15.15,0,0,0,0-.035.539.539,0,0,0-.021-.059l-.083-.229h-.64l-.083.244-.01.03a.213.213,0,0,0-.014.058.053.053,0,0,0,.028.052.354.354,0,0,0,.129.014h.15v.22Zm1.265-.848-.252-.671-.229.671Z" transform="translate(-940.61 -1522.733)" fill="#fff"/><path d="M1041.393,1593.818h-.409l-.966-1.583v1.183a.229.229,0,0,0,.031.149.26.26,0,0,0,.16.031h.133v.22h-.954v-.22h.135a.26.26,0,0,0,.16-.031.228.228,0,0,0,.031-.149v-1.143a.229.229,0,0,0-.031-.149.26.26,0,0,0-.16-.03h-.124v-.219h.831l.859,1.409v-1.01a.23.23,0,0,0-.031-.149.26.26,0,0,0-.16-.03h-.137v-.219h.918v.219h-.093a.262.262,0,0,0-.162.031.226.226,0,0,0-.032.148Z" transform="translate(-994.242 -1522.733)" fill="#fff"/><path d="M1129.007,1593.418a.226.226,0,0,0,.032.148.263.263,0,0,0,.162.031h.135v.22h-1.041v-.22h.113a.26.26,0,0,0,.16-.031.228.228,0,0,0,.031-.149v-1.143a.23.23,0,0,0-.031-.149.261.261,0,0,0-.16-.03h-.113v-.219h1.022a1.07,1.07,0,0,1,.593.134.449.449,0,0,1,.2.4.551.551,0,0,1-.054.251.486.486,0,0,1-.165.182.563.563,0,0,1-.22.075,2.635,2.635,0,0,1-.394.023h-.269Zm0-.7h.194a.717.717,0,0,0,.375-.071.266.266,0,0,0,.108-.241.272.272,0,0,0-.1-.244.79.79,0,0,0-.4-.07h-.171Z" transform="translate(-1079.287 -1522.733)" fill="#fff"/><path d="M1180.974,1593.418a.226.226,0,0,0,.032.148.263.263,0,0,0,.162.031h.135v.22h-1.041v-.22h.113a.26.26,0,0,0,.16-.031.229.229,0,0,0,.031-.149v-1.143a.23.23,0,0,0-.031-.149.261.261,0,0,0-.16-.03h-.113v-.219h1.16a1.011,1.011,0,0,1,.541.115.39.39,0,0,1,.177.352.425.425,0,0,1-.141.334.744.744,0,0,1-.415.158.5.5,0,0,1,.29.118.483.483,0,0,1,.1.3l.013.174a.356.356,0,0,0,.025.133.065.065,0,0,0,.061.031q.085,0,.09-.318v-.009h.184a.318.318,0,0,1,0,.039q0,.021,0,.059a.631.631,0,0,1-.1.39.366.366,0,0,1-.306.123.371.371,0,0,1-.27-.095.367.367,0,0,1-.1-.263l-.009-.228a.425.425,0,0,0-.1-.309.552.552,0,0,0-.351-.081h-.138Zm0-.738h.342a.521.521,0,0,0,.3-.07.258.258,0,0,0,.1-.223.261.261,0,0,0-.092-.225.552.552,0,0,0-.316-.068h-.332Z" transform="translate(-1128.997 -1522.733)" fill="#fff"/><path d="M1238.964,1591.632a.98.98,0,0,1,.295-.743,1.206,1.206,0,0,1,1.55,0,1.089,1.089,0,0,1,0,1.487,1.2,1.2,0,0,1-1.549,0,.985.985,0,0,1-.295-.744m.456,0a.937.937,0,0,0,.162.586.589.589,0,0,0,.9,0,1.142,1.142,0,0,0,0-1.171.591.591,0,0,0-.9,0,.93.93,0,0,0-.162.584" transform="translate(-1185.149 -1521.519)" fill="#fff"/><path d="M1299.155,1592.09h-.038a.4.4,0,0,0-.339.139.771.771,0,0,0-.11.451h-.222v-.8h1.828v.8h-.222a.768.768,0,0,0-.109-.449.4.4,0,0,0-.338-.141h-.042v1.328a.226.226,0,0,0,.032.148.262.262,0,0,0,.162.031h.165v.22H1298.8v-.22h.168a.261.261,0,0,0,.16-.031.229.229,0,0,0,.031-.149Z" transform="translate(-1242.047 -1522.733)" fill="#fff"/><path d="M1349.959,1593.818v-.22h.113a.26.26,0,0,0,.16-.031.228.228,0,0,0,.031-.149v-1.143a.23.23,0,0,0-.031-.149.26.26,0,0,0-.16-.03h-.113v-.219h1.91v.773h-.22a.725.725,0,0,0-.108-.443.543.543,0,0,0-.4-.111h-.466v.6h.11a.326.326,0,0,0,.239-.063.529.529,0,0,0,.071-.289h.22v.974h-.22a.65.65,0,0,0-.069-.323.294.294,0,0,0-.237-.073h-.113v.682h.509a.428.428,0,0,0,.349-.118.946.946,0,0,0,.12-.484h.22v.823Z" transform="translate(-1291.323 -1522.733)" fill="#fff"/><path d="M1409.011,1591.791h.249a.912.912,0,0,1-.238.6.763.763,0,0,1-.567.211,1.062,1.062,0,0,1-.386-.066.87.87,0,0,1-.308-.2.99.99,0,0,1-.227-.343,1.12,1.12,0,0,1-.077-.417,1.1,1.1,0,0,1,.075-.412,1,1,0,0,1,.226-.338.933.933,0,0,1,.307-.207.947.947,0,0,1,.365-.07.874.874,0,0,1,.293.049.986.986,0,0,1,.271.15l.058-.174h.209v.8h-.223a.738.738,0,0,0-.179-.431.492.492,0,0,0-.374-.153.487.487,0,0,0-.419.213,1,1,0,0,0-.152.591.891.891,0,0,0,.151.555.507.507,0,0,0,.425.2.456.456,0,0,0,.346-.139.739.739,0,0,0,.175-.4" transform="translate(-1346.323 -1521.457)" fill="#fff"/><path d="M1460.785,1592.09h-.038a.4.4,0,0,0-.339.139.772.772,0,0,0-.11.451h-.222v-.8h1.828v.8h-.222a.767.767,0,0,0-.109-.449.4.4,0,0,0-.338-.141h-.042v1.328a.226.226,0,0,0,.032.148.263.263,0,0,0,.162.031h.165v.22h-1.126v-.22h.168a.26.26,0,0,0,.16-.031.229.229,0,0,0,.031-.149Z" transform="translate(-1396.657 -1522.733)" fill="#fff"/><path d="M599.014,1370.41v-6.028h4.324v1.41h-2.5v1.1h1.992v1.406h-1.992v2.117Z" transform="translate(-572.996 -1305.119)" fill="#064290"/><path d="M773.965,1363.266a1.136,1.136,0,0,0-.3-.732.934.934,0,0,0-.689-.257.849.849,0,0,0-.757.441,2.536,2.536,0,0,0-.274,1.316,4.378,4.378,0,0,0,.042.613,1.618,1.618,0,0,0,.16.523.938.938,0,0,0,.334.366,1.034,1.034,0,0,0,.562.137.9.9,0,0,0,.385-.078.793.793,0,0,0,.279-.215,1.055,1.055,0,0,0,.179-.323,1.886,1.886,0,0,0,.092-.4h1.755a3.223,3.223,0,0,1-.277,1.046,2.537,2.537,0,0,1-.562.785,2.356,2.356,0,0,1-.807.493,2.921,2.921,0,0,1-1.013.169,3.285,3.285,0,0,1-1.238-.221,2.534,2.534,0,0,1-.928-.633,2.786,2.786,0,0,1-.583-1,4.065,4.065,0,0,1-.2-1.324,3.809,3.809,0,0,1,.215-1.318,2.979,2.979,0,0,1,.591-1,2.556,2.556,0,0,1,.881-.629,2.709,2.709,0,0,1,1.087-.219,3.539,3.539,0,0,1,1.134.168,2.423,2.423,0,0,1,.849.482,2.242,2.242,0,0,1,.557.772,3.336,3.336,0,0,1,.26,1.038Z" transform="translate(-736.673 -1301.699)" fill="#064290"/><path d="M979.11,1370.41v-6.028h2.66a5.272,5.272,0,0,1,.879.07,2.186,2.186,0,0,1,.715.241,1.287,1.287,0,0,1,.479.464,1.594,1.594,0,0,1,.111,1.175,1.667,1.667,0,0,1-.166.366,1.626,1.626,0,0,1-.232.3,1.7,1.7,0,0,1-.266.221,1.146,1.146,0,0,1,.4.194,1.235,1.235,0,0,1,.291.315,1.439,1.439,0,0,1,.177.4,1.784,1.784,0,0,1,.06.468,1.907,1.907,0,0,1-.172.85,1.446,1.446,0,0,1-.485.562,2.091,2.091,0,0,1-.755.309,4.738,4.738,0,0,1-.985.094Zm1.826-4.618v1h.755a.734.734,0,0,0,.451-.131.462.462,0,0,0,.175-.4.5.5,0,0,0-.062-.272.371.371,0,0,0-.164-.141.684.684,0,0,0-.236-.053q-.134-.008-.277-.008Zm0,2.1V1369h.8a2.008,2.008,0,0,0,.313-.022.707.707,0,0,0,.249-.084.44.44,0,0,0,.166-.169.564.564,0,0,0,.06-.276.548.548,0,0,0-.075-.309.453.453,0,0,0-.209-.168,1.053,1.053,0,0,0-.319-.069q-.185-.014-.4-.014Z" transform="translate(-936.582 -1305.119)" fill="#064290"/><path d="M1170.374,1364.382h1.838l.977,4.009,1.011-4.009h1.838l-1.932,6.028h-1.83Z" transform="translate(-1119.538 -1305.119)" fill="#064290"/><path d="M1382.533,1367.672l-.068-1.373v-1.917h1.747v6.028H1382.5l-1.985-3.282.068,1.373v1.909h-1.747v-6.028h1.709Z" transform="translate(-1318.948 -1305.119)" fill="#064290"/></g></g></g></svg>